<svg width="150" height="59" viewBox="0 0 150 59" fill="none" xmlns="http://www.w3.org/2000/svg">
<rect width="150" height="40" rx="20" fill="#FC8510"/>
<path d="M37.2706 21.716L32.6446 13.4H30.1786V26H32.5186V17.684L37.1446 26H39.6106V13.4H37.2706V21.716ZM50.5924 21.266C50.5924 20.24 50.2684 19.178 49.6204 18.296C48.9724 17.378 47.8024 16.784 46.3624 16.784C43.2484 16.784 42.0064 19.304 42.0064 21.464C42.0064 23.624 43.2484 26.144 46.3624 26.144C48.3424 26.144 49.7104 25.262 50.4844 23.498L48.6844 22.832C48.1444 23.768 47.4064 24.236 46.4884 24.236C45.1924 24.236 44.4004 23.282 44.3464 22.184H50.5924V21.266ZM46.3624 18.692C47.4064 18.692 48.0544 19.268 48.3064 20.42H44.4004C44.5624 19.466 45.3004 18.692 46.3624 18.692ZM60.9811 21.266C60.9811 20.24 60.6571 19.178 60.0091 18.296C59.3611 17.378 58.1911 16.784 56.7511 16.784C53.6371 16.784 52.3951 19.304 52.3951 21.464C52.3951 23.624 53.6371 26.144 56.7511 26.144C58.7311 26.144 60.0991 25.262 60.8731 23.498L59.0731 22.832C58.5331 23.768 57.7951 24.236 56.8771 24.236C55.5811 24.236 54.7891 23.282 54.7351 22.184H60.9811V21.266ZM56.7511 18.692C57.7951 18.692 58.4431 19.268 58.6951 20.42H54.7891C54.9511 19.466 55.6891 18.692 56.7511 18.692ZM66.9238 16.784C64.2598 16.784 62.7838 18.602 62.7838 21.464C62.7838 24.326 64.2598 26.144 66.9238 26.144C67.9498 26.144 68.8318 25.586 69.1198 25.064V26H71.3518V13.256H69.1198V17.756C68.7058 17.234 67.8058 16.784 66.9238 16.784ZM65.7178 19.43C66.1138 18.944 66.6178 18.692 67.2298 18.692C67.8418 18.692 68.3458 18.944 68.7238 19.43C69.1198 19.916 69.3178 20.582 69.3178 21.464C69.3178 22.346 69.1198 23.03 68.7238 23.516C68.3458 24.002 67.8418 24.236 67.2298 24.236C66.6178 24.236 66.1138 23.984 65.7178 23.498C65.3218 23.012 65.1238 22.328 65.1238 21.464C65.1238 20.6 65.3218 19.916 65.7178 19.43ZM78.69 26H80.922V22.166C80.922 19.88 81.894 18.692 83.046 18.692C83.946 18.692 84.396 19.232 84.396 20.312V26H86.628V19.52C86.628 17.72 85.548 16.784 83.802 16.784C82.56 16.784 81.588 17.324 80.922 18.386V13.256H78.69V26ZM97.3678 21.266C97.3678 20.24 97.0438 19.178 96.3958 18.296C95.7478 17.378 94.5778 16.784 93.1378 16.784C90.0238 16.784 88.7818 19.304 88.7818 21.464C88.7818 23.624 90.0238 26.144 93.1378 26.144C95.1178 26.144 96.4858 25.262 97.2598 23.498L95.4598 22.832C94.9198 23.768 94.1818 24.236 93.2638 24.236C91.9678 24.236 91.1758 23.282 91.1218 22.184H97.3678V21.266ZM93.1378 18.692C94.1818 18.692 94.8298 19.268 95.0818 20.42H91.1758C91.3378 19.466 92.0758 18.692 93.1378 18.692ZM99.3435 26H101.575V13.256H99.3435V26ZM108.554 26.144C111.218 26.144 112.694 24.326 112.694 21.464C112.694 18.602 111.218 16.784 108.554 16.784C107.528 16.784 106.646 17.342 106.358 17.864V16.928H104.126V29.672H106.358V25.172C106.772 25.694 107.672 26.144 108.554 26.144ZM109.76 23.498C109.364 23.984 108.86 24.236 108.248 24.236C107.636 24.236 107.132 24.002 106.736 23.516C106.358 23.03 106.16 22.346 106.16 21.464C106.16 20.582 106.358 19.916 106.736 19.43C107.132 18.944 107.636 18.692 108.248 18.692C108.86 18.692 109.364 18.944 109.76 19.43C110.156 19.916 110.354 20.6 110.354 21.464C110.354 22.328 110.156 23.012 109.76 23.498ZM118.346 19.718C118.148 20.276 117.806 20.546 117.32 20.546C116.96 20.546 116.672 20.294 116.672 19.916C116.672 19.43 116.996 19.214 118.202 18.728C119.084 18.386 119.714 18.044 120.092 17.666C120.488 17.288 120.686 16.766 120.686 16.1C120.686 14.372 119.372 13.256 117.356 13.256C115.484 13.256 114.206 14.426 113.918 16.01L115.88 16.334C116.114 15.524 116.636 15.128 117.41 15.128C118.112 15.128 118.58 15.434 118.58 16.028C118.58 16.622 118.166 17 116.78 17.522C115.484 18.008 114.836 18.8 114.836 19.862C114.836 21.23 115.862 22.166 117.32 22.166C118.598 22.166 119.516 21.464 119.93 20.312L118.346 19.718ZM115.826 24.632C115.826 25.442 116.474 26.108 117.32 26.108C118.166 26.108 118.814 25.442 118.814 24.632C118.814 23.786 118.13 23.12 117.32 23.12C116.51 23.12 115.826 23.786 115.826 24.632Z" fill="white"/>
<path d="M121 59L105 40H121V59Z" fill="#FC8510"/>
</svg>
